<?xml version="1.0" encoding="UTF-8"?>
<svg id="Layer_1" data-name="Layer 1" xmlns="http://www.w3.org/2000/svg" viewBox="0 0 862.36 181.55">
  <defs>
    <style>
      .cls-1 {
        fill: #0094d8;
      }

      .cls-1, .cls-2, .cls-3 {
        stroke-width: 0px;
      }

      .cls-2 {
        fill: #ec297b;
      }

      .cls-3 {
        fill: #ec2578;
      }
    </style>
  </defs>
  <path class="cls-1" d="M84.44,127.05H0L42.2,1.39l42.24,125.67ZM12.32,118.28h59.79L42.2,29.3,12.32,118.28Z"/>
  <polygon class="cls-2" points="23.51 139.74 14.75 165.84 5.98 139.74 23.51 139.74"/>
  <polygon class="cls-3" points="78.34 139.74 69.57 165.84 60.8 139.74 78.34 139.74"/>
  <polygon class="cls-2" points="56.27 139.74 42.23 181.55 28.17 139.74 56.27 139.74"/>
  <polygon class="cls-2" points="29.68 105.81 42.21 68.49 54.75 105.81 29.68 105.81"/>
  <path class="cls-2" d="M712.32.93h68.02v11.43h-52.24v44.66h50.35v10.8h-50.35v48.71h52.24v11.18h-68.02V.93Z"/>
  <path class="cls-2" d="M797.13.93h27.75c27.78,0,37.48,18.51,37.48,38.09s-8.25,37.86-37.48,37.86h-12v50.84h-15.75V.93ZM812.89,65.74h12.94c10.2,0,20.99-6.03,20.99-26.67,0-18.37-10.58-27-21.19-27h-12.74v53.67Z"/>
  <path class="cls-2" d="M655.94,0c25.78,0,35.88,17.18,35.88,33.52,0,15.16-9.09,23.75-18.86,28.13,14.49,3.71,22.24,16.51,22.24,31.33,0,18.19-12.64,36.05-40.26,36.05s-41.94-19.88-40.6-40.26h15.85c-.51,14.49,4.54,28.97,24.76,28.97,15.11,0,24.37-10.78,24.37-24.42s-8.12-25.27-25.56-25.27h-7.41v-11.29h7.41c18.6,0,22.08-13.64,22.08-23.41,0-9.09-3.77-22.06-19.72-22.06-14.74,0-20.6,11.45-20.27,23.41h-15.78c-.51-17.35,10.45-34.7,35.88-34.7Z"/>
  <polygon class="cls-2" points="216.23 .85 188.12 58.72 159.95 .85 216.23 .85"/>
  <polygon class="cls-2" points="356.2 71.03 366.11 41.53 376.02 71.03 356.2 71.03"/>
  <polygon class="cls-1" points="233.11 127.65 233 27.29 193.63 108.78 182.55 108.85 142.77 28.39 142.9 127.65 131.61 127.65 131.61 .92 142.74 .92 188.06 94.83 233.79 .92 259.73 .92 263.54 12.08 243.88 12.08 243.88 57.27 278.7 57.27 282.4 68.34 243.88 68.34 243.88 116.79 308.53 116.79 308.53 1.05 363.5 1.05 359.67 11.99 319.6 12.2 319.6 127.65 233.11 127.65"/>
  <polygon class="cls-1" points="412.47 127.71 401.82 97.81 347.35 97.81 351.06 86.73 397.81 86.75 374.5 17.22 380.04 1.15 424.13 127.71 412.47 127.71"/>
  <polygon class="cls-2" points="440.97 127.56 440.97 12.17 400.84 12.17 396.55 1.06 492.2 1.06 492.2 12.17 456.84 12.17 456.84 127.56 440.97 127.56"/>
  <polygon class="cls-2" points="598.76 127.56 598.76 1.06 583.18 1.06 520.24 106.11 520.24 1.06 504.01 1.06 504.01 127.56 519.95 127.56 582.79 24.51 582.75 127.56 598.76 127.56"/>
</svg>